# xmcd
#
# Track frame offsets:
#	150
#	19283
#	32448
#	48614
#	63635
#	78035
#	96059
#	110712
#	125673
#	143284
#	156148
#	167760
#	185153
#	199353
#	216646
#	232717
#	245919
#	260129
#	276302
#	288398
#
# Disc length: 4070 seconds
#
# Revision: 0
# Processed by: cddbd v1.5.2PL0 Copyright (c) Steve Scherf et al.
# Submitted via: EZCDAudioConverter 4.0.5.1
#
DISCID=330fe414
DTITLE=Vários - Canto, Bebo e Choro
DYEAR=2007
DGENRE=Sertanejo
TTITLE0=Milionário and José Rico - Decida
TTITLE1=Chrystian and Ralf - Nas quebradas da noite
TTITLE2=Alan and Aladin - Dois Passarinhos
TTITLE3=Joaquim and Manuel - Boate Azul
TTITLE4=Leonardo - Só Mais Uma Vez
TTITLE5=Duduca and Dalvan - Pirâmide do Amor
TTITLE6=Matogrosso and Mathias - Idas e Voltas
TTITLE7=Trio Parada Dura - Parede e meia
TTITLE8=Chico Rey and Paraná - Quem Será Seu Outro Amor
TTITLE9=Gilberto and Gilmar - Música da saudade
TTITLE10=Juliano Cezar - Sorriso mudo
TTITLE11=Joaquim and Manoel - Saudade de mim
TTITLE12=João Mineiro and Marciano - Ainda ontem chorei de saudade
TTITLE13=Bruno and Marrone - Dizem que um homem não deve chorar
TTITLE14=Renê and Ronaldo - Fonte de desejo
TTITLE15=Matogrosso and Mathias - 24 horas de amor
TTITLE16=Roberto and Meirinho - A noite do nosso amor
TTITLE17=Duduca and Dalvan - Mulher maravilha
TTITLE18=Trio Parada Dura - Avião das nove
TTITLE19=Leonardo - A desconhecida
EXTD=
EXTT0=
EXTT1=
EXTT2=
EXTT3=
EXTT4=
EXTT5=
EXTT6=
EXTT7=
EXTT8=
EXTT9=
EXTT10=
EXTT11=
EXTT12=
EXTT13=
EXTT14=
EXTT15=
EXTT16=
EXTT17=
EXTT18=
EXTT19=
PLAYORDER=
